<mxfile host="Electron" agent="Mozilla/5.0 (Macintosh; Intel Mac OS X 10_15_7) AppleWebKit/537.36 (KHTML, like Gecko) draw.io/26.2.15 Chrome/134.0.6998.205 Electron/35.2.1 Safari/537.36" version="26.2.15">
  <diagram name="Page-1" id="yMWt4CThLmG1p6eGsA-l">
    <mxGraphModel dx="796" dy="570" grid="1" gridSize="10" guides="1" tooltips="1" connect="1" arrows="1" fold="1" page="1" pageScale="1" pageWidth="850" pageHeight="1100" math="0" shadow="0">
      <root>
        <mxCell id="0" />
        <mxCell id="1" parent="0" />
        <mxCell id="VWaU1ew9nBj0DdF5fvnh-9" value="&lt;div style=&quot;text-align: center;&quot;&gt;&lt;font color=&quot;#000000&quot;&gt;&lt;span style=&quot;font-size: 11px; text-wrap-mode: nowrap; background-color: rgb(255, 255, 255);&quot;&gt;us-east-1&lt;/span&gt;&lt;/font&gt;&lt;/div&gt;" style="sketch=0;outlineConnect=0;gradientColor=none;html=1;whiteSpace=wrap;fontSize=12;fontStyle=0;shape=mxgraph.aws4.group;grIcon=mxgraph.aws4.group_vpc;strokeColor=#879196;fillColor=none;verticalAlign=top;align=left;spacingLeft=30;fontColor=#879196;dashed=0;" vertex="1" parent="1">
          <mxGeometry x="250" y="80" width="450" height="280" as="geometry" />
        </mxCell>
        <mxCell id="VWaU1ew9nBj0DdF5fvnh-24" value="" style="edgeStyle=orthogonalEdgeStyle;rounded=0;orthogonalLoop=1;jettySize=auto;html=1;exitX=0.75;exitY=0;exitDx=0;exitDy=0;exitPerimeter=0;entryX=0;entryY=0.5;entryDx=0;entryDy=0;entryPerimeter=0;" edge="1" parent="1" source="VWaU1ew9nBj0DdF5fvnh-1" target="VWaU1ew9nBj0DdF5fvnh-6">
          <mxGeometry relative="1" as="geometry" />
        </mxCell>
        <mxCell id="VWaU1ew9nBj0DdF5fvnh-52" value=":5432" style="edgeLabel;html=1;align=center;verticalAlign=middle;resizable=0;points=[];" vertex="1" connectable="0" parent="VWaU1ew9nBj0DdF5fvnh-24">
          <mxGeometry x="0.4742" relative="1" as="geometry">
            <mxPoint as="offset" />
          </mxGeometry>
        </mxCell>
        <mxCell id="VWaU1ew9nBj0DdF5fvnh-1" value="&lt;font style=&quot;font-size: 10px;&quot;&gt;Fargate&lt;/font&gt;" style="sketch=0;points=[[0,0,0],[0.25,0,0],[0.5,0,0],[0.75,0,0],[1,0,0],[0,1,0],[0.25,1,0],[0.5,1,0],[0.75,1,0],[1,1,0],[0,0.25,0],[0,0.5,0],[0,0.75,0],[1,0.25,0],[1,0.5,0],[1,0.75,0]];outlineConnect=0;fontColor=#232F3E;fillColor=#ED7100;strokeColor=#ffffff;dashed=0;verticalLabelPosition=bottom;verticalAlign=top;align=center;html=1;fontSize=12;fontStyle=0;aspect=fixed;shape=mxgraph.aws4.resourceIcon;resIcon=mxgraph.aws4.fargate;" vertex="1" parent="1">
          <mxGeometry x="417" y="254" width="35" height="35" as="geometry" />
        </mxCell>
        <mxCell id="VWaU1ew9nBj0DdF5fvnh-29" value="" style="edgeStyle=orthogonalEdgeStyle;rounded=0;orthogonalLoop=1;jettySize=auto;html=1;" edge="1" parent="1" source="VWaU1ew9nBj0DdF5fvnh-2" target="VWaU1ew9nBj0DdF5fvnh-1">
          <mxGeometry relative="1" as="geometry" />
        </mxCell>
        <mxCell id="VWaU1ew9nBj0DdF5fvnh-2" value="&lt;font style=&quot;font-size: 10px;&quot;&gt;Elastic&amp;nbsp;&lt;/font&gt;&lt;div&gt;&lt;font style=&quot;font-size: 10px;&quot;&gt;Container Service&lt;/font&gt;&lt;/div&gt;" style="sketch=0;points=[[0,0,0],[0.25,0,0],[0.5,0,0],[0.75,0,0],[1,0,0],[0,1,0],[0.25,1,0],[0.5,1,0],[0.75,1,0],[1,1,0],[0,0.25,0],[0,0.5,0],[0,0.75,0],[1,0.25,0],[1,0.5,0],[1,0.75,0]];outlineConnect=0;fontColor=#232F3E;fillColor=#ED7100;strokeColor=#ffffff;dashed=0;verticalLabelPosition=bottom;verticalAlign=top;align=center;html=1;fontSize=12;fontStyle=0;aspect=fixed;shape=mxgraph.aws4.resourceIcon;resIcon=mxgraph.aws4.ecs;" vertex="1" parent="1">
          <mxGeometry x="514" y="254" width="35" height="35" as="geometry" />
        </mxCell>
        <mxCell id="VWaU1ew9nBj0DdF5fvnh-28" value="" style="edgeStyle=orthogonalEdgeStyle;rounded=0;orthogonalLoop=1;jettySize=auto;html=1;exitX=1;exitY=0.5;exitDx=0;exitDy=0;exitPerimeter=0;" edge="1" parent="1" source="VWaU1ew9nBj0DdF5fvnh-2" target="VWaU1ew9nBj0DdF5fvnh-3">
          <mxGeometry relative="1" as="geometry" />
        </mxCell>
        <mxCell id="VWaU1ew9nBj0DdF5fvnh-3" value="&lt;font style=&quot;font-size: 10px;&quot;&gt;Elastic&amp;nbsp;&lt;/font&gt;&lt;div&gt;&lt;font style=&quot;font-size: 10px;&quot;&gt;Container Registry&lt;/font&gt;&lt;/div&gt;" style="sketch=0;points=[[0,0,0],[0.25,0,0],[0.5,0,0],[0.75,0,0],[1,0,0],[0,1,0],[0.25,1,0],[0.5,1,0],[0.75,1,0],[1,1,0],[0,0.25,0],[0,0.5,0],[0,0.75,0],[1,0.25,0],[1,0.5,0],[1,0.75,0]];outlineConnect=0;fontColor=#232F3E;fillColor=#ED7100;strokeColor=#ffffff;dashed=0;verticalLabelPosition=bottom;verticalAlign=top;align=center;html=1;fontSize=12;fontStyle=0;aspect=fixed;shape=mxgraph.aws4.resourceIcon;resIcon=mxgraph.aws4.ecr;" vertex="1" parent="1">
          <mxGeometry x="605" y="254" width="35" height="35" as="geometry" />
        </mxCell>
        <mxCell id="VWaU1ew9nBj0DdF5fvnh-31" value="" style="edgeStyle=orthogonalEdgeStyle;rounded=0;orthogonalLoop=1;jettySize=auto;html=1;startArrow=classic;startFill=1;" edge="1" parent="1" source="VWaU1ew9nBj0DdF5fvnh-4" target="VWaU1ew9nBj0DdF5fvnh-1">
          <mxGeometry relative="1" as="geometry" />
        </mxCell>
        <mxCell id="VWaU1ew9nBj0DdF5fvnh-40" value=":3000" style="edgeLabel;html=1;align=center;verticalAlign=middle;resizable=0;points=[];" vertex="1" connectable="0" parent="VWaU1ew9nBj0DdF5fvnh-31">
          <mxGeometry x="0.0204" y="-1" relative="1" as="geometry">
            <mxPoint x="-3" y="-3" as="offset" />
          </mxGeometry>
        </mxCell>
        <mxCell id="VWaU1ew9nBj0DdF5fvnh-4" value="&lt;div&gt;&lt;br&gt;&lt;/div&gt;&lt;div&gt;&lt;br&gt;&lt;/div&gt;&lt;div&gt;&lt;br&gt;&lt;/div&gt;&lt;div&gt;&lt;br&gt;&lt;/div&gt;&lt;font style=&quot;font-size: 10px;&quot;&gt;Application Load Balancer&lt;/font&gt;" style="points=[];aspect=fixed;html=1;align=center;shadow=0;dashed=0;fillColor=#FF6A00;strokeColor=none;shape=mxgraph.alibaba_cloud.alb_application_load_balancer_02;" vertex="1" parent="1">
          <mxGeometry x="230" y="254" width="35" height="35" as="geometry" />
        </mxCell>
        <mxCell id="VWaU1ew9nBj0DdF5fvnh-6" value="&lt;font style=&quot;font-size: 10px;&quot;&gt;Postgres&lt;/font&gt;" style="sketch=0;points=[[0,0,0],[0.25,0,0],[0.5,0,0],[0.75,0,0],[1,0,0],[0,1,0],[0.25,1,0],[0.5,1,0],[0.75,1,0],[1,1,0],[0,0.25,0],[0,0.5,0],[0,0.75,0],[1,0.25,0],[1,0.5,0],[1,0.75,0]];outlineConnect=0;fontColor=#232F3E;fillColor=#C925D1;strokeColor=#ffffff;dashed=0;verticalLabelPosition=bottom;verticalAlign=top;align=center;html=1;fontSize=12;fontStyle=0;aspect=fixed;shape=mxgraph.aws4.resourceIcon;resIcon=mxgraph.aws4.rds;" vertex="1" parent="1">
          <mxGeometry x="497" y="128" width="35" height="35" as="geometry" />
        </mxCell>
        <mxCell id="VWaU1ew9nBj0DdF5fvnh-7" value="" style="sketch=0;verticalLabelPosition=bottom;sketch=0;aspect=fixed;html=1;verticalAlign=top;strokeColor=none;fillColor=#000000;align=center;outlineConnect=0;pointerEvents=1;shape=mxgraph.citrix2.authentication_google;" vertex="1" parent="1">
          <mxGeometry x="260" y="570" width="50" height="50" as="geometry" />
        </mxCell>
        <mxCell id="VWaU1ew9nBj0DdF5fvnh-25" value="" style="edgeStyle=orthogonalEdgeStyle;rounded=0;orthogonalLoop=1;jettySize=auto;html=1;" edge="1" parent="1" source="VWaU1ew9nBj0DdF5fvnh-35" target="VWaU1ew9nBj0DdF5fvnh-3">
          <mxGeometry relative="1" as="geometry" />
        </mxCell>
        <mxCell id="VWaU1ew9nBj0DdF5fvnh-8" value="&lt;font style=&quot;font-size: 10px;&quot;&gt;Github Action&lt;/font&gt;" style="dashed=0;outlineConnect=0;html=1;align=center;labelPosition=center;verticalLabelPosition=bottom;verticalAlign=top;shape=mxgraph.weblogos.github" vertex="1" parent="1">
          <mxGeometry x="642" y="25" width="35" height="35" as="geometry" />
        </mxCell>
        <mxCell id="VWaU1ew9nBj0DdF5fvnh-12" value="" style="endArrow=classic;html=1;rounded=0;exitX=0.975;exitY=0.391;exitDx=0;exitDy=0;exitPerimeter=0;entryX=0;entryY=0.5;entryDx=0;entryDy=0;entryPerimeter=0;startArrow=block;startFill=1;" edge="1" parent="1" source="VWaU1ew9nBj0DdF5fvnh-22" target="VWaU1ew9nBj0DdF5fvnh-41">
          <mxGeometry width="50" height="50" relative="1" as="geometry">
            <mxPoint x="118" y="209" as="sourcePoint" />
            <mxPoint x="208" y="209" as="targetPoint" />
          </mxGeometry>
        </mxCell>
        <mxCell id="VWaU1ew9nBj0DdF5fvnh-13" value="&lt;font style=&quot;font-size: 10px;&quot;&gt;&lt;span style=&quot;background-color: light-dark(#ffffff, var(--ge-dark-color, #121212)); color: light-dark(rgb(0, 0, 0), rgb(255, 255, 255));&quot;&gt;:443&lt;/span&gt;&lt;/font&gt;" style="edgeLabel;html=1;align=center;verticalAlign=middle;resizable=0;points=[];" vertex="1" connectable="0" parent="VWaU1ew9nBj0DdF5fvnh-12">
          <mxGeometry x="-0.03" relative="1" as="geometry">
            <mxPoint x="-2" y="-2" as="offset" />
          </mxGeometry>
        </mxCell>
        <mxCell id="VWaU1ew9nBj0DdF5fvnh-19" value="" style="endArrow=classic;html=1;rounded=0;entryX=0.043;entryY=0.435;entryDx=0;entryDy=0;entryPerimeter=0;exitX=1;exitY=0.5;exitDx=0;exitDy=0;exitPerimeter=0;startArrow=block;startFill=1;" edge="1" parent="1" source="VWaU1ew9nBj0DdF5fvnh-41">
          <mxGeometry width="50" height="50" relative="1" as="geometry">
            <mxPoint x="162" y="275.8" as="sourcePoint" />
            <mxPoint x="231.89200000000005" y="275.94" as="targetPoint" />
          </mxGeometry>
        </mxCell>
        <mxCell id="VWaU1ew9nBj0DdF5fvnh-50" value="&lt;font style=&quot;font-size: 10px;&quot;&gt;:443&lt;/font&gt;" style="edgeLabel;html=1;align=center;verticalAlign=middle;resizable=0;points=[];" vertex="1" connectable="0" parent="VWaU1ew9nBj0DdF5fvnh-19">
          <mxGeometry x="-0.1953" y="-1" relative="1" as="geometry">
            <mxPoint x="8" y="-2" as="offset" />
          </mxGeometry>
        </mxCell>
        <mxCell id="VWaU1ew9nBj0DdF5fvnh-22" value="" style="image;aspect=fixed;perimeter=ellipsePerimeter;html=1;align=center;shadow=0;dashed=0;spacingTop=3;image=img/lib/active_directory/internet_globe.svg;" vertex="1" parent="1">
          <mxGeometry x="46" y="262" width="35" height="35" as="geometry" />
        </mxCell>
        <mxCell id="VWaU1ew9nBj0DdF5fvnh-36" value="" style="edgeStyle=orthogonalEdgeStyle;rounded=0;orthogonalLoop=1;jettySize=auto;html=1;" edge="1" parent="1" source="VWaU1ew9nBj0DdF5fvnh-8" target="VWaU1ew9nBj0DdF5fvnh-35">
          <mxGeometry relative="1" as="geometry">
            <mxPoint x="682" y="63" as="sourcePoint" />
            <mxPoint x="682" y="163" as="targetPoint" />
          </mxGeometry>
        </mxCell>
        <mxCell id="VWaU1ew9nBj0DdF5fvnh-35" value="" style="image;sketch=0;aspect=fixed;html=1;points=[];align=center;fontSize=12;image=img/lib/mscae/Docker.svg;" vertex="1" parent="1">
          <mxGeometry x="611.0000000000001" y="109.14" width="23" height="18.86" as="geometry" />
        </mxCell>
        <mxCell id="VWaU1ew9nBj0DdF5fvnh-41" value="&lt;font style=&quot;font-size: 10px;&quot;&gt;Route 53&lt;/font&gt;" style="sketch=0;points=[[0,0,0],[0.25,0,0],[0.5,0,0],[0.75,0,0],[1,0,0],[0,1,0],[0.25,1,0],[0.5,1,0],[0.75,1,0],[1,1,0],[0,0.25,0],[0,0.5,0],[0,0.75,0],[1,0.25,0],[1,0.5,0],[1,0.75,0]];outlineConnect=0;fontColor=#232F3E;fillColor=#8C4FFF;strokeColor=#ffffff;dashed=0;verticalLabelPosition=bottom;verticalAlign=top;align=center;html=1;fontSize=12;fontStyle=0;aspect=fixed;shape=mxgraph.aws4.resourceIcon;resIcon=mxgraph.aws4.route_53;" vertex="1" parent="1">
          <mxGeometry x="137" y="258" width="35" height="35" as="geometry" />
        </mxCell>
        <mxCell id="VWaU1ew9nBj0DdF5fvnh-53" value="" style="edgeStyle=orthogonalEdgeStyle;rounded=0;orthogonalLoop=1;jettySize=auto;html=1;" edge="1" parent="1" source="VWaU1ew9nBj0DdF5fvnh-42" target="VWaU1ew9nBj0DdF5fvnh-47">
          <mxGeometry relative="1" as="geometry" />
        </mxCell>
        <mxCell id="VWaU1ew9nBj0DdF5fvnh-42" value="&lt;font style=&quot;font-size: 10px;&quot;&gt;Certificate Manager (SSL)&lt;/font&gt;" style="sketch=0;points=[[0,0,0],[0.25,0,0],[0.5,0,0],[0.75,0,0],[1,0,0],[0,1,0],[0.25,1,0],[0.5,1,0],[0.75,1,0],[1,1,0],[0,0.25,0],[0,0.5,0],[0,0.75,0],[1,0.25,0],[1,0.5,0],[1,0.75,0]];outlineConnect=0;fontColor=#232F3E;fillColor=#DD344C;strokeColor=#ffffff;dashed=0;verticalLabelPosition=bottom;verticalAlign=top;align=center;html=1;fontSize=12;fontStyle=0;aspect=fixed;shape=mxgraph.aws4.resourceIcon;resIcon=mxgraph.aws4.certificate_manager_3;" vertex="1" parent="1">
          <mxGeometry x="359" y="300" width="35" height="35" as="geometry" />
        </mxCell>
        <mxCell id="VWaU1ew9nBj0DdF5fvnh-43" value="&lt;font style=&quot;font-size: 10px;&quot;&gt;Cloudwatch&lt;/font&gt;" style="sketch=0;points=[[0,0,0],[0.25,0,0],[0.5,0,0],[0.75,0,0],[1,0,0],[0,1,0],[0.25,1,0],[0.5,1,0],[0.75,1,0],[1,1,0],[0,0.25,0],[0,0.5,0],[0,0.75,0],[1,0.25,0],[1,0.5,0],[1,0.75,0]];points=[[0,0,0],[0.25,0,0],[0.5,0,0],[0.75,0,0],[1,0,0],[0,1,0],[0.25,1,0],[0.5,1,0],[0.75,1,0],[1,1,0],[0,0.25,0],[0,0.5,0],[0,0.75,0],[1,0.25,0],[1,0.5,0],[1,0.75,0]];outlineConnect=0;fontColor=#232F3E;fillColor=#E7157B;strokeColor=#ffffff;dashed=0;verticalLabelPosition=bottom;verticalAlign=top;align=center;html=1;fontSize=12;fontStyle=0;aspect=fixed;shape=mxgraph.aws4.resourceIcon;resIcon=mxgraph.aws4.cloudwatch_2;" vertex="1" parent="1">
          <mxGeometry x="359" y="128" width="35" height="35" as="geometry" />
        </mxCell>
        <mxCell id="VWaU1ew9nBj0DdF5fvnh-44" value="" style="edgeStyle=orthogonalEdgeStyle;rounded=0;orthogonalLoop=1;jettySize=auto;html=1;exitX=0.25;exitY=0;exitDx=0;exitDy=0;exitPerimeter=0;entryX=1;entryY=0.5;entryDx=0;entryDy=0;entryPerimeter=0;" edge="1" parent="1" source="VWaU1ew9nBj0DdF5fvnh-1" target="VWaU1ew9nBj0DdF5fvnh-43">
          <mxGeometry relative="1" as="geometry">
            <mxPoint x="422" y="173" as="sourcePoint" />
            <mxPoint x="524" y="126" as="targetPoint" />
            <Array as="points" />
          </mxGeometry>
        </mxCell>
        <mxCell id="VWaU1ew9nBj0DdF5fvnh-54" value="" style="edgeStyle=orthogonalEdgeStyle;rounded=0;orthogonalLoop=1;jettySize=auto;html=1;" edge="1" parent="1" source="VWaU1ew9nBj0DdF5fvnh-47" target="VWaU1ew9nBj0DdF5fvnh-4">
          <mxGeometry relative="1" as="geometry" />
        </mxCell>
        <mxCell id="VWaU1ew9nBj0DdF5fvnh-47" value="" style="sketch=0;outlineConnect=0;fontColor=#232F3E;gradientColor=none;fillColor=#232F3D;strokeColor=none;dashed=0;verticalLabelPosition=bottom;verticalAlign=top;align=center;html=1;fontSize=12;fontStyle=0;aspect=fixed;pointerEvents=1;shape=mxgraph.aws4.ssl_padlock;" vertex="1" parent="1">
          <mxGeometry x="310" y="308.5" width="18.48" height="18" as="geometry" />
        </mxCell>
      </root>
    </mxGraphModel>
  </diagram>
</mxfile>
